<svg width="20" height="27" viewBox="0 0 20 27" fill="none" xmlns="http://www.w3.org/2000/svg">
<path d="M16.8957 20.4166L19.7851 24.1514L16.1475 27L11.4725 20.988H6.19263C6.19263 20.988 0.663315 20.7023 0.663315 14.8357V5.86922C0.663315 5.86922 0.663315 0 6.55082 0H14.4707C15.1499 0 20 0.320043 20 6.18926V15.1161C20 15.1161 20 18.9566 16.8957 20.4166ZM14.6485 7.39802C14.6485 7.39802 14.6485 4.98051 12.5789 4.98051H6.69144C6.50751 4.98739 6.33356 5.06563 6.20667 5.19855C6.07979 5.33146 6.01001 5.50854 6.01221 5.69201V13.627C6.01221 13.627 6.01222 16.0074 8.08173 16.0074H13.9692C14.1532 16.0006 14.3271 15.9223 14.454 15.7894C14.5809 15.6565 14.6507 15.4794 14.6485 15.2959V7.39802Z" fill="white"/>
</svg>
